<svg width="32" height="32" viewBox="0 0 32 32" fill="none" xmlns="http://www.w3.org/2000/svg">
<path d="M8.66667 2.66663H23.3333C23.5403 2.66663 23.7445 2.71482 23.9296 2.80739C24.1148 2.89996 24.2758 3.03436 24.4 3.19996L28 7.99996V28C28 28.3536 27.8595 28.6927 27.6095 28.9428C27.3594 29.1928 27.0203 29.3333 26.6667 29.3333H5.33333C4.97971 29.3333 4.64057 29.1928 4.39052 28.9428C4.14048 28.6927 4 28.3536 4 28V7.99996L7.6 3.19996C7.7242 3.03436 7.88524 2.89996 8.07038 2.80739C8.25552 2.71482 8.45967 2.66663 8.66667 2.66663ZM24.6667 7.99996L22.6667 5.33329H9.33333L7.33333 7.99996H24.6667ZM12 13.3333H9.33333V16C9.33333 17.7681 10.0357 19.4638 11.286 20.714C12.5362 21.9642 14.2319 22.6666 16 22.6666C17.7681 22.6666 19.4638 21.9642 20.714 20.714C21.9643 19.4638 22.6667 17.7681 22.6667 16V13.3333H20V16C20 17.0608 19.5786 18.0782 18.8284 18.8284C18.0783 19.5785 17.0609 20 16 20C14.9391 20 13.9217 19.5785 13.1716 18.8284C12.4214 18.0782 12 17.0608 12 16V13.3333Z" fill="#706E6E"/>
</svg>
