<svg width="32" height="32" viewBox="0 0 32 32" fill="none" xmlns="http://www.w3.org/2000/svg">
<path fill-rule="evenodd" clip-rule="evenodd" d="M3.2002 12.8C3.2002 12.3757 3.36877 11.9687 3.66882 11.6687C3.96888 11.3686 4.37585 11.2 4.8002 11.2H21.293C21.7173 11.2 22.1243 11.3686 22.4244 11.6687C22.7244 11.9687 22.893 12.3757 22.893 12.8C22.893 13.2244 22.7244 13.6314 22.4244 13.9314C22.1243 14.2315 21.7173 14.4 21.293 14.4H4.8002C4.37585 14.4 3.96888 14.2315 3.66882 13.9314C3.36877 13.6314 3.2002 13.2244 3.2002 12.8V12.8ZM3.2002 6.40005C3.2002 5.9757 3.36877 5.56874 3.66882 5.26868C3.96888 4.96862 4.37585 4.80005 4.8002 4.80005H27.2002C27.6245 4.80005 28.0315 4.96862 28.3316 5.26868C28.6316 5.56874 28.8002 5.9757 28.8002 6.40005C28.8002 6.8244 28.6316 7.23136 28.3316 7.53142C28.0315 7.83148 27.6245 8.00005 27.2002 8.00005H4.8002C4.37585 8.00005 3.96888 7.83148 3.66882 7.53142C3.36877 7.23136 3.2002 6.8244 3.2002 6.40005V6.40005ZM3.2002 19.2C3.2002 18.7757 3.36877 18.3687 3.66882 18.0687C3.96888 17.7686 4.37585 17.6 4.8002 17.6H27.2002C27.6245 17.6 28.0315 17.7686 28.3316 18.0687C28.6316 18.3687 28.8002 18.7757 28.8002 19.2C28.8002 19.6244 28.6316 20.0314 28.3316 20.3314C28.0315 20.6315 27.6245 20.8 27.2002 20.8H4.8002C4.37585 20.8 3.96888 20.6315 3.66882 20.3314C3.36877 20.0314 3.2002 19.6244 3.2002 19.2V19.2ZM3.2002 25.6C3.2002 25.1757 3.36877 24.7687 3.66882 24.4687C3.96888 24.1686 4.37585 24 4.8002 24H21.293C21.7173 24 22.1243 24.1686 22.4244 24.4687C22.7244 24.7687 22.893 25.1757 22.893 25.6C22.893 26.0244 22.7244 26.4314 22.4244 26.7314C22.1243 27.0315 21.7173 27.2 21.293 27.2H4.8002C4.37585 27.2 3.96888 27.0315 3.66882 26.7314C3.36877 26.4314 3.2002 26.0244 3.2002 25.6V25.6Z" fill="#706E6E"/>
</svg>
