<svg width="32" height="32" viewBox="0 0 32 32" fill="none" xmlns="http://www.w3.org/2000/svg">
<path fill-rule="evenodd" clip-rule="evenodd" d="M6.2775 20.5866C7.83852 21.6831 9.69922 22.2724 11.6068 22.2746C12.1947 23.8753 13.2098 25.2844 14.542 26.3489C15.8742 27.4133 17.4725 28.0925 19.1635 28.3125C20.8544 28.5326 22.5734 28.2853 24.1337 27.5973C25.694 26.9093 27.0359 25.807 28.0139 24.4101C28.9919 23.0132 29.5685 21.375 29.6811 19.6735C29.7936 17.972 29.4379 16.2722 28.6526 14.7586C27.8672 13.245 26.6821 11.9755 25.2261 11.0879C23.7701 10.2003 22.0987 9.72862 20.3935 9.72398C19.8884 8.34908 19.0668 7.11236 17.9951 6.11386C16.9235 5.11535 15.6319 4.38309 14.2247 3.97629C12.8176 3.5695 11.3345 3.4996 9.89536 3.77224C8.45622 4.04489 7.10145 4.65242 5.94063 5.54571C4.77981 6.43899 3.84553 7.59295 3.21335 8.91424C2.58118 10.2355 2.26886 11.6871 2.30166 13.1514C2.33445 14.6158 2.71145 16.0519 3.40214 17.3436C4.09284 18.6353 5.07785 19.7462 6.2775 20.5866ZM7.80683 18.4C8.76459 19.0729 9.88332 19.4805 11.0495 19.5813C10.9292 17.4894 11.5193 15.4183 12.7242 13.704C13.9233 11.9858 15.6679 10.7233 17.6748 10.1213C17.2423 9.19499 16.6025 8.38055 15.805 7.74096C15.0074 7.10138 14.0735 6.65379 13.0753 6.4328C12.0772 6.2118 11.0415 6.22333 10.0486 6.46649C9.05557 6.70965 8.13181 7.17792 7.34869 7.8351C6.56558 8.49228 5.9441 9.32077 5.5323 10.2565C5.12051 11.1922 4.92943 12.2101 4.97384 13.2315C5.01826 14.2528 5.29697 15.2503 5.78844 16.1467C6.27991 17.0432 6.97096 17.8146 7.80816 18.4013L7.80683 18.4ZM24.1935 13.596C23.2356 12.9236 22.1169 12.5165 20.9508 12.416C21.0711 14.5079 20.481 16.579 19.2762 18.2933C18.077 20.0115 16.3324 21.274 14.3255 21.876C14.758 22.8023 15.3978 23.6167 16.1953 24.2563C16.9929 24.8959 17.9269 25.3435 18.925 25.5645C19.9232 25.7855 20.9588 25.7739 21.9518 25.5308C22.9448 25.2876 23.8685 24.8194 24.6516 24.1622C25.4347 23.505 26.0562 22.6765 26.468 21.7408C26.8798 20.8051 27.0709 19.7872 27.0265 18.7658C26.9821 17.7445 26.7034 16.747 26.2119 15.8505C25.7204 14.9541 25.0294 14.1827 24.1922 13.596H24.1935Z" fill="#706E6E"/>
</svg>
