<svg width="25" height="24" viewBox="0 0 25 24" fill="none" xmlns="http://www.w3.org/2000/svg">
<path d="M21.2848 10.962C21.7588 11.582 21.7588 12.419 21.2848 13.038C19.7918 14.987 16.2098 19 12.0278 19C7.84584 19 4.26384 14.987 2.77084 13.038C2.54023 12.7411 2.41504 12.3759 2.41504 12C2.41504 11.6241 2.54023 11.2589 2.77084 10.962C4.26384 9.013 7.84584 5 12.0278 5C16.2098 5 19.7918 9.013 21.2848 10.962V10.962Z" stroke="#0071E4" stroke-width="2" stroke-linecap="round" stroke-linejoin="round"/>
<path d="M12.0278 15C13.6847 15 15.0278 13.6569 15.0278 12C15.0278 10.3431 13.6847 9 12.0278 9C10.371 9 9.02783 10.3431 9.02783 12C9.02783 13.6569 10.371 15 12.0278 15Z" stroke="#0071E4" stroke-width="2" stroke-linecap="round" stroke-linejoin="round"/>
</svg>
