<svg width="25" height="24" viewBox="0 0 25 24" fill="none" xmlns="http://www.w3.org/2000/svg">
<path d="M10.0279 12V22H8.02786V14H6.02786V12H10.0279ZM18.0279 14V20C18.0279 21.11 17.1379 22 16.0279 22H14.0279C13.4974 22 12.9887 21.7893 12.6136 21.4142C12.2386 21.0391 12.0279 20.5304 12.0279 20V14C12.0279 13.4696 12.2386 12.9609 12.6136 12.5858C12.9887 12.2107 13.4974 12 14.0279 12H16.0279C16.5583 12 17.067 12.2107 17.4421 12.5858C17.8171 12.9609 18.0279 13.4696 18.0279 14ZM14.0279 14V20H16.0279V14H14.0279ZM11.5279 3C14.1779 3 16.5779 4 18.4279 5.6L21.0279 3V10H14.0279L16.6479 7.38C15.2579 6.22 13.4879 5.5 11.5279 5.5C7.98786 5.5 4.97786 7.81 3.92786 11L1.55786 10.22C2.94786 6.03 6.87786 3 11.5279 3Z" fill="#0071E4"/>
</svg>
