<svg width="25" height="24" viewBox="0 0 25 24" fill="none" xmlns="http://www.w3.org/2000/svg">
<path d="M20.0278 8H14.4158L15.5388 4.633C15.7408 4.025 15.6388 3.351 15.2638 2.831C14.8888 2.311 14.2808 2 13.6398 2H12.0278C11.7308 2 11.4498 2.132 11.2588 2.36L6.55883 8H4.02783C2.92483 8 2.02783 8.897 2.02783 10V19C2.02783 20.103 2.92483 21 4.02783 21H17.3348C17.7417 20.9986 18.1386 20.8738 18.4731 20.6421C18.8075 20.4103 19.0637 20.0825 19.2078 19.702L21.9648 12.351C22.0067 12.2387 22.028 12.1198 22.0278 12V10C22.0278 8.897 21.1308 8 20.0278 8ZM4.02783 10H6.02783V19H4.02783V10ZM20.0278 11.819L17.3348 19H8.02783V9.362L12.4958 4H13.6418L12.0798 8.683C12.0291 8.83331 12.015 8.99355 12.0386 9.15043C12.0622 9.3073 12.1228 9.45629 12.2155 9.58504C12.3082 9.71379 12.4302 9.8186 12.5715 9.89076C12.7128 9.96293 12.8692 10.0004 13.0278 10H20.0278V11.819Z" fill="#0071E4"/>
</svg>
