<svg width="16" height="16" viewBox="0 0 16 16" fill="none" xmlns="http://www.w3.org/2000/svg">
<path d="M8.49687 0.807861C7.92188 0.807861 7.37187 1.33067 7.27187 2.08817C7.16562 2.89536 7.625 3.57192 8.2375 3.64692C8.85313 3.72192 9.47188 3.1813 9.58125 2.37286C9.69063 1.56474 9.22188 0.890674 8.6125 0.815049C8.575 0.810361 8.53437 0.807861 8.49687 0.807861ZM7.30312 3.80005C6.11562 3.99692 4.95312 5.10942 4.36562 5.86255C4.00625 6.9063 3.9125 7.94692 3.71875 8.98755L4.6 8.96255C4.80625 8.17505 4.85625 7.34067 5.25625 6.6063C5.71875 6.35005 6.09688 5.96255 6.45625 5.55005C6.25625 6.57817 6.01875 7.80942 6.04375 8.7313C6.975 10.9469 9.03437 13.1188 10.2 15.1813L11.1344 14.4219C10.2344 12.6813 9.3375 11.0969 8.1875 9.41567C8.25313 9.1938 9.54063 4.3063 9.0625 4.0438C8.43125 4.32505 7.78437 4.2313 7.30312 3.80005ZM9.55 5.6313C9.45312 6.18755 9.38438 6.72817 9.2375 7.2813C9.37813 7.45005 9.47187 7.60942 9.68437 7.75942C10.4969 8.23755 11.3094 8.5813 12.1219 8.9063L12.4094 7.97192L9.9875 6.79692C9.85313 6.4063 9.74063 6.00942 9.55 5.6313ZM5.84688 9.69067C5.6875 10.4719 5.54062 11.2594 5.48438 12.0813C4.9875 13.0719 4.36875 13.6938 3.59375 14.4688L4.53125 15.1938C5.25312 14.4125 6.09062 13.725 6.61562 12.8875L7.05312 11.5563C6.5625 10.9625 6.16563 10.3438 5.84688 9.69067Z" fill="#585656"/>
</svg>
