<svg width="24" height="24" viewBox="0 0 24 24" fill="none" xmlns="http://www.w3.org/2000/svg">
<path d="M4.57492 4.57504C4.85621 4.29384 5.23768 4.13586 5.63542 4.13586C6.03317 4.13586 6.41463 4.29384 6.69592 4.57504L11.9999 9.87904L17.3039 4.57504C17.5868 4.30181 17.9657 4.15062 18.359 4.15403C18.7523 4.15745 19.1285 4.3152 19.4066 4.59332C19.6848 4.87143 19.8425 5.24765 19.8459 5.64094C19.8493 6.03424 19.6982 6.41314 19.4249 6.69604L14.1209 12L19.4249 17.304C19.6982 17.5869 19.8493 17.9658 19.8459 18.3591C19.8425 18.7524 19.6848 19.1287 19.4066 19.4068C19.1285 19.6849 18.7523 19.8426 18.359 19.8461C17.9657 19.8495 17.5868 19.6983 17.3039 19.425L11.9999 14.121L6.69592 19.425C6.41302 19.6983 6.03412 19.8495 5.64082 19.8461C5.24752 19.8426 4.87131 19.6849 4.59319 19.4068C4.31508 19.1287 4.15733 18.7524 4.15391 18.3591C4.15049 17.9658 4.30168 17.5869 4.57492 17.304L9.87892 12L4.57492 6.69604C4.29372 6.41475 4.13574 6.03329 4.13574 5.63554C4.13574 5.2378 4.29372 4.85634 4.57492 4.57504Z" fill="#0071E4"/>
</svg>
