<svg width="15" height="19" viewBox="0 0 15 19" fill="none" xmlns="http://www.w3.org/2000/svg">
<path d="M5.84699 5.58438C6.80762 4.08625 7.37637 2.7025 7.67262 1.72375C7.78637 1.34875 8.26637 1.19563 8.55137 1.46438C12.847 5.515 14.2514 8.60813 14.5307 12.1819C14.7357 15.6388 13.037 18.715 8.47637 18.715C4.19512 18.715 1.03449 15.7269 1.46387 10.99C1.72137 8.16 2.82199 6.00313 3.70137 4.71938C3.97512 4.32 4.54574 4.31438 4.86137 4.68188L5.64824 5.59813C5.70262 5.66125 5.80199 5.65438 5.84699 5.58438Z" fill="url(#paint0_radial_2268_196)"/>
<path d="M5.84699 5.58438C6.80762 4.08625 7.37637 2.7025 7.67262 1.72375C7.78637 1.34875 8.26637 1.19563 8.55137 1.46438C12.847 5.515 14.2514 8.60813 14.5307 12.1819C14.7357 15.6388 13.037 18.715 8.47637 18.715C4.19512 18.715 1.03449 15.7269 1.46387 10.99C1.72137 8.16 2.82199 6.00313 3.70137 4.71938C3.97512 4.32 4.54574 4.31438 4.86137 4.68188L5.64824 5.59813C5.70262 5.66125 5.80199 5.65438 5.84699 5.58438Z" fill="url(#paint1_radial_2268_196)"/>
<path d="M5.84699 5.58438C6.80762 4.08625 7.37637 2.7025 7.67262 1.72375C7.78637 1.34875 8.26637 1.19563 8.55137 1.46438C12.847 5.515 14.2514 8.60813 14.5307 12.1819C14.7357 15.6388 13.037 18.715 8.47637 18.715C4.19512 18.715 1.03449 15.7269 1.46387 10.99C1.72137 8.16 2.82199 6.00313 3.70137 4.71938C3.97512 4.32 4.54574 4.31438 4.86137 4.68188L5.64824 5.59813C5.70262 5.66125 5.80199 5.65438 5.84699 5.58438Z" fill="url(#paint2_linear_2268_196)"/>
<path d="M5.84699 5.58438C6.80762 4.08625 7.37637 2.7025 7.67262 1.72375C7.78637 1.34875 8.26637 1.19563 8.55137 1.46438C12.847 5.515 14.2514 8.60813 14.5307 12.1819C14.7357 15.6388 13.037 18.715 8.47637 18.715C4.19512 18.715 1.03449 15.7269 1.46387 10.99C1.72137 8.16 2.82199 6.00313 3.70137 4.71938C3.97512 4.32 4.54574 4.31438 4.86137 4.68188L5.64824 5.59813C5.70262 5.66125 5.80199 5.65438 5.84699 5.58438Z" fill="url(#paint3_radial_2268_196)"/>
<path d="M5.84699 5.58438C6.80762 4.08625 7.37637 2.7025 7.67262 1.72375C7.78637 1.34875 8.26637 1.19563 8.55137 1.46438C12.847 5.515 14.2514 8.60813 14.5307 12.1819C14.7357 15.6388 13.037 18.715 8.47637 18.715C4.19512 18.715 1.03449 15.7269 1.46387 10.99C1.72137 8.16 2.82199 6.00313 3.70137 4.71938C3.97512 4.32 4.54574 4.31438 4.86137 4.68188L5.64824 5.59813C5.70262 5.66125 5.80199 5.65438 5.84699 5.58438Z" fill="url(#paint4_radial_2268_196)"/>
<path d="M5.84699 5.58438C6.80762 4.08625 7.37637 2.7025 7.67262 1.72375C7.78637 1.34875 8.26637 1.19563 8.55137 1.46438C12.847 5.515 14.2514 8.60813 14.5307 12.1819C14.7357 15.6388 13.037 18.715 8.47637 18.715C4.19512 18.715 1.03449 15.7269 1.46387 10.99C1.72137 8.16 2.82199 6.00313 3.70137 4.71938C3.97512 4.32 4.54574 4.31438 4.86137 4.68188L5.64824 5.59813C5.70262 5.66125 5.80199 5.65438 5.84699 5.58438Z" fill="url(#paint5_radial_2268_196)"/>
<path d="M5.84699 5.58438C6.80762 4.08625 7.37637 2.7025 7.67262 1.72375C7.78637 1.34875 8.26637 1.19563 8.55137 1.46438C12.847 5.515 14.2514 8.60813 14.5307 12.1819C14.7357 15.6388 13.037 18.715 8.47637 18.715C4.19512 18.715 1.03449 15.7269 1.46387 10.99C1.72137 8.16 2.82199 6.00313 3.70137 4.71938C3.97512 4.32 4.54574 4.31438 4.86137 4.68188L5.64824 5.59813C5.70262 5.66125 5.80199 5.65438 5.84699 5.58438Z" fill="url(#paint6_radial_2268_196)"/>
<path d="M5.84699 5.58438C6.80762 4.08625 7.37637 2.7025 7.67262 1.72375C7.78637 1.34875 8.26637 1.19563 8.55137 1.46438C12.847 5.515 14.2514 8.60813 14.5307 12.1819C14.7357 15.6388 13.037 18.715 8.47637 18.715C4.19512 18.715 1.03449 15.7269 1.46387 10.99C1.72137 8.16 2.82199 6.00313 3.70137 4.71938C3.97512 4.32 4.54574 4.31438 4.86137 4.68188L5.64824 5.59813C5.70262 5.66125 5.80199 5.65438 5.84699 5.58438Z" fill="url(#paint7_radial_2268_196)"/>
<g filter="url(#filter0_i_2268_196)">
<path d="M4.36125 12.4231C5.175 10.4856 6.84563 8.34251 7.97375 7.17938C8.12675 7.02288 8.33508 6.9327 8.5539 6.92826C8.77272 6.92382 8.98453 7.00547 9.14375 7.15563C11.3069 9.14876 11.9581 10.9506 12.5106 13.0481C13.0856 15.2306 12.5106 18.7469 8.185 18.7469C4.46 18.7469 3.16875 15.2606 4.36125 12.4231Z" fill="url(#paint8_radial_2268_196)"/>
<path d="M4.36125 12.4231C5.175 10.4856 6.84563 8.34251 7.97375 7.17938C8.12675 7.02288 8.33508 6.9327 8.5539 6.92826C8.77272 6.92382 8.98453 7.00547 9.14375 7.15563C11.3069 9.14876 11.9581 10.9506 12.5106 13.0481C13.0856 15.2306 12.5106 18.7469 8.185 18.7469C4.46 18.7469 3.16875 15.2606 4.36125 12.4231Z" fill="url(#paint9_radial_2268_196)"/>
<path d="M4.36125 12.4231C5.175 10.4856 6.84563 8.34251 7.97375 7.17938C8.12675 7.02288 8.33508 6.9327 8.5539 6.92826C8.77272 6.92382 8.98453 7.00547 9.14375 7.15563C11.3069 9.14876 11.9581 10.9506 12.5106 13.0481C13.0856 15.2306 12.5106 18.7469 8.185 18.7469C4.46 18.7469 3.16875 15.2606 4.36125 12.4231Z" fill="url(#paint10_radial_2268_196)"/>
</g>
<path d="M4.36125 12.4231C5.175 10.4856 6.84563 8.34251 7.97375 7.17938C8.12675 7.02288 8.33508 6.9327 8.5539 6.92826C8.77272 6.92382 8.98453 7.00547 9.14375 7.15563C11.3069 9.14876 11.9581 10.9506 12.5106 13.0481C13.0856 15.2306 12.5106 18.7469 8.185 18.7469C4.46 18.7469 3.16875 15.2606 4.36125 12.4231Z" fill="url(#paint11_linear_2268_196)"/>
<path d="M4.36125 12.4231C5.175 10.4856 6.84563 8.34251 7.97375 7.17938C8.12675 7.02288 8.33508 6.9327 8.5539 6.92826C8.77272 6.92382 8.98453 7.00547 9.14375 7.15563C11.3069 9.14876 11.9581 10.9506 12.5106 13.0481C13.0856 15.2306 12.5106 18.7469 8.185 18.7469C4.46 18.7469 3.16875 15.2606 4.36125 12.4231Z" fill="url(#paint12_radial_2268_196)"/>
<g filter="url(#filter1_f_2268_196)">
<path d="M5.38395 7.21188C6.83083 5.09313 7.6777 2.80063 7.93583 2.23563C7.55895 5.13188 6.46083 7.25313 4.39333 9.98438C2.73958 12.1694 2.44083 14.0394 2.4552 14.495C1.93833 11.0188 3.57458 9.86 5.38395 7.21188Z" fill="url(#paint13_linear_2268_196)"/>
</g>
<g filter="url(#filter2_f_2268_196)">
<path d="M4.13386 4.92125C3.32136 5.93 1.70573 8.7275 1.74636 11.8487C2.54636 8.6475 4.41823 7.63875 4.13386 4.92125Z" fill="url(#paint14_linear_2268_196)"/>
</g>
<defs>
<filter id="filter0_i_2268_196" x="3.93115" y="6.92809" width="9.26562" height="11.8188" filterUnits="userSpaceOnUse" color-interpolation-filters="sRGB">
<feFlood flood-opacity="0" result="BackgroundImageFix"/>
<feBlend mode="normal" in="SourceGraphic" in2="BackgroundImageFix" result="shape"/>
<feColorMatrix in="SourceAlpha" type="matrix" values="0 0 0 0 0 0 0 0 0 0 0 0 0 0 0 0 0 0 127 0" result="hardAlpha"/>
<feOffset dx="0.5"/>
<feGaussianBlur stdDeviation="0.25"/>
<feComposite in2="hardAlpha" operator="arithmetic" k2="-1" k3="1"/>
<feColorMatrix type="matrix" values="0 0 0 0 0.952941 0 0 0 0 0.615686 0 0 0 0 0.364706 0 0 0 1 0"/>
<feBlend mode="normal" in2="shape" result="effect1_innerShadow_2268_196"/>
</filter>
<filter id="filter1_f_2268_196" x="1.1084" y="0.985626" width="8.07764" height="14.7594" filterUnits="userSpaceOnUse" color-interpolation-filters="sRGB">
<feFlood flood-opacity="0" result="BackgroundImageFix"/>
<feBlend mode="normal" in="SourceGraphic" in2="BackgroundImageFix" result="shape"/>
<feGaussianBlur stdDeviation="0.625" result="effect1_foregroundBlur_2268_196"/>
</filter>
<filter id="filter2_f_2268_196" x="0.245605" y="3.42125" width="5.41748" height="9.92751" filterUnits="userSpaceOnUse" color-interpolation-filters="sRGB">
<feFlood flood-opacity="0" result="BackgroundImageFix"/>
<feBlend mode="normal" in="SourceGraphic" in2="BackgroundImageFix" result="shape"/>
<feGaussianBlur stdDeviation="0.75" result="effect1_foregroundBlur_2268_196"/>
</filter>
<radialGradient id="paint0_radial_2268_196" cx="0" cy="0" r="1" gradientUnits="userSpaceOnUse" gradientTransform="translate(13.001 12.3251) rotate(-179.474) scale(10.6867 16.1163)">
<stop stop-color="#FF953D"/>
<stop offset="1" stop-color="#FF5141"/>
</radialGradient>
<radialGradient id="paint1_radial_2268_196" cx="0" cy="0" r="1" gradientUnits="userSpaceOnUse" gradientTransform="translate(4.48276 9.7838) rotate(-157.937) scale(6.46506 11.1559)">
<stop stop-color="#CE5327"/>
<stop offset="1" stop-color="#CE5327" stop-opacity="0"/>
</radialGradient>
<linearGradient id="paint2_linear_2268_196" x1="9.46012" y1="18.715" x2="9.46012" y2="15.5288" gradientUnits="userSpaceOnUse">
<stop stop-color="#FF7583"/>
<stop offset="1" stop-color="#FF7583" stop-opacity="0"/>
</linearGradient>
<radialGradient id="paint3_radial_2268_196" cx="0" cy="0" r="1" gradientUnits="userSpaceOnUse" gradientTransform="translate(1.09858 8.99474) rotate(24.015) scale(1.94041 16.0619)">
<stop stop-color="#FFAA7B"/>
<stop offset="1" stop-color="#FFAA7B" stop-opacity="0"/>
</radialGradient>
<radialGradient id="paint4_radial_2268_196" cx="0" cy="0" r="1" gradientUnits="userSpaceOnUse" gradientTransform="translate(3.81887 3.90625) rotate(77.3197) scale(2.40022 2.99492)">
<stop stop-color="#FF5E47"/>
<stop offset="1" stop-color="#FF5E47" stop-opacity="0"/>
</radialGradient>
<radialGradient id="paint5_radial_2268_196" cx="0" cy="0" r="1" gradientUnits="userSpaceOnUse" gradientTransform="translate(8.26824 0.853751) rotate(87.8819) scale(6.33587 5.86451)">
<stop stop-color="#FF2F3C"/>
<stop offset="1" stop-color="#FF2F3C" stop-opacity="0"/>
</radialGradient>
<radialGradient id="paint6_radial_2268_196" cx="0" cy="0" r="1" gradientUnits="userSpaceOnUse" gradientTransform="translate(6.68762 3) rotate(25.3283) scale(1.43684 2.88345)">
<stop stop-color="#FF846C"/>
<stop offset="1" stop-color="#FF846C" stop-opacity="0"/>
</radialGradient>
<radialGradient id="paint7_radial_2268_196" cx="0" cy="0" r="1" gradientUnits="userSpaceOnUse" gradientTransform="translate(5.78637 5.13125) rotate(113.224) scale(1.42398 0.326316)">
<stop stop-color="#FFA682"/>
<stop offset="1" stop-color="#FFA682" stop-opacity="0"/>
</radialGradient>
<radialGradient id="paint8_radial_2268_196" cx="0" cy="0" r="1" gradientUnits="userSpaceOnUse" gradientTransform="translate(11.2524 15.2352) rotate(-168.558) scale(6.26819 7.80569)">
<stop stop-color="#FFDA2F"/>
<stop offset="1" stop-color="#FF8E41"/>
</radialGradient>
<radialGradient id="paint9_radial_2268_196" cx="0" cy="0" r="1" gradientUnits="userSpaceOnUse" gradientTransform="translate(5.75 5.37001) rotate(69.044) scale(8.83906 7.67994)">
<stop stop-color="#FD5639"/>
<stop offset="1" stop-color="#FE5533" stop-opacity="0"/>
</radialGradient>
<radialGradient id="paint10_radial_2268_196" cx="0" cy="0" r="1" gradientUnits="userSpaceOnUse" gradientTransform="translate(10.0244 12.8931) rotate(174.239) scale(6.12416 14.9946)">
<stop offset="0.628" stop-color="#D7812D" stop-opacity="0"/>
<stop offset="1" stop-color="#D7812D"/>
</radialGradient>
<linearGradient id="paint11_linear_2268_196" x1="8.31438" y1="6.63251" x2="8.31438" y2="8.91188" gradientUnits="userSpaceOnUse">
<stop stop-color="#F95131"/>
<stop offset="1" stop-color="#F95131" stop-opacity="0"/>
</linearGradient>
<radialGradient id="paint12_radial_2268_196" cx="0" cy="0" r="1" gradientUnits="userSpaceOnUse" gradientTransform="translate(12.3662 11.7519) rotate(143.063) scale(10.0341 7.26088)">
<stop offset="0.772" stop-color="#F18A52" stop-opacity="0"/>
<stop offset="1" stop-color="#F18A52"/>
</radialGradient>
<linearGradient id="paint13_linear_2268_196" x1="7.3727" y1="2.65938" x2="2.78458" y2="14.2075" gradientUnits="userSpaceOnUse">
<stop stop-color="#FF7558"/>
<stop offset="1" stop-color="#F38758"/>
</linearGradient>
<linearGradient id="paint14_linear_2268_196" x1="3.96323" y1="5.09" x2="1.48886" y2="12.1744" gradientUnits="userSpaceOnUse">
<stop stop-color="#FF815B"/>
<stop offset="1" stop-color="#FF9C6D"/>
</linearGradient>
</defs>
</svg>
