<svg width="40" height="40" viewBox="0 0 40 40" fill="none" xmlns="http://www.w3.org/2000/svg">
<path d="M8.494 1.14307C5.45235 1.14307 2.76844 2.52014 1.14307 4.62414V13.999C2.76844 16.1014 5.45235 17.4785 8.494 17.4785C9.96582 17.4785 11.3511 17.1501 12.5779 16.58V35.4474H17.4785V9.31077C17.4785 4.80057 13.4567 1.14307 8.494 1.14307Z" stroke="#CCCCCC" stroke-width="2.1" stroke-miterlimit="10" stroke-linecap="round" stroke-linejoin="round"/>
<path d="M10.1274 14.2114C11.48 14.2114 12.5778 15.3092 12.5778 16.6617" stroke="#CCCCCC" stroke-width="2.1" stroke-miterlimit="10" stroke-linecap="round" stroke-linejoin="round"/>
<path d="M15.8447 38.7143H14.2112C13.3095 38.7143 12.5776 37.9825 12.5776 37.0808V35.4473H17.4783V37.0808C17.4783 37.9825 16.7464 38.7143 15.8447 38.7143Z" stroke="#CCCCCC" stroke-width="2.1" stroke-miterlimit="10" stroke-linecap="round" stroke-linejoin="round"/>
<path d="M5.63531 7.67725C4.95903 7.67725 4.41016 8.22612 4.41016 8.9024C4.41016 9.57869 4.95903 10.1276 5.63531 10.1276C6.3116 10.1276 6.86047 9.57869 6.86047 8.9024C6.86047 8.22612 6.3116 7.67725 5.63531 7.67725Z" fill="#CCCCCC"/>
<path d="M10.9409 4.91992C12.2134 5.48023 13.2279 6.46362 13.7718 7.67571" stroke="#CCCCCC" stroke-width="2.1" stroke-miterlimit="10" stroke-linecap="round" stroke-linejoin="round"/>
<path d="M31.3634 1.14307C34.405 1.14307 37.0889 2.52014 38.7143 4.62414V13.999C37.0889 16.1014 34.405 17.4785 31.3634 17.4785C29.8916 17.4785 28.5063 17.1501 27.2795 16.58V35.4474H22.3789V9.31077C22.3789 4.80057 26.4007 1.14307 31.3634 1.14307Z" stroke="#CCCCCC" stroke-width="2.1" stroke-miterlimit="10" stroke-linecap="round" stroke-linejoin="round"/>
<path d="M29.7301 14.2114C28.3775 14.2114 27.2798 15.3092 27.2798 16.6617" stroke="#CCCCCC" stroke-width="2.1" stroke-miterlimit="10" stroke-linecap="round" stroke-linejoin="round"/>
<path d="M24.0124 38.7143H25.646C26.5477 38.7143 27.2795 37.9825 27.2795 37.0808V35.4473H22.3789V37.0808C22.3789 37.9825 23.1107 38.7143 24.0124 38.7143Z" stroke="#CCCCCC" stroke-width="2.1" stroke-miterlimit="10" stroke-linecap="round" stroke-linejoin="round"/>
<path d="M28.9164 4.91992C27.6438 5.48023 26.6294 6.46362 26.0854 7.67571" stroke="#CCCCCC" stroke-width="2.1" stroke-miterlimit="10" stroke-linecap="round" stroke-linejoin="round"/>
<path d="M34.2222 7.67725C33.5459 7.67725 32.9971 8.22612 32.9971 8.9024C32.9971 9.57869 33.5459 10.1276 34.2222 10.1276C34.8985 10.1276 35.4474 9.57869 35.4474 8.9024C35.4474 8.22612 34.8985 7.67725 34.2222 7.67725Z" fill="#CCCCCC"/>
</svg>
