<svg width="64" height="64" viewBox="0 0 64 64" fill="none" xmlns="http://www.w3.org/2000/svg">
<path d="M12.5 27.5H17V39.5H14C13.6022 39.5 13.2206 39.658 12.9393 39.9393C12.658 40.2206 12.5 40.6021 12.5 41C12.5 41.3978 12.658 41.7793 12.9393 42.0606C13.2206 42.3419 13.6022 42.5 14 42.5H50C50.3978 42.5 50.7794 42.3419 51.0607 42.0606C51.342 41.7793 51.5 41.3978 51.5 41C51.5 40.6021 51.342 40.2206 51.0607 39.9393C50.7794 39.658 50.3978 39.5 50 39.5H47V27.5H51.5C51.826 27.4994 52.1429 27.3926 52.4028 27.1959C52.6626 26.9991 52.8514 26.7231 52.9403 26.4095C53.0293 26.0959 53.0138 25.7619 52.896 25.4579C52.7782 25.154 52.5646 24.8967 52.2875 24.725L32.7875 12.725C32.5515 12.5769 32.2786 12.4983 32 12.4983C31.7214 12.4983 31.4485 12.5769 31.2125 12.725L11.7125 24.725C11.4354 24.8967 11.2218 25.154 11.104 25.4579C10.9862 25.7619 10.9707 26.0959 11.0597 26.4095C11.1486 26.7231 11.3374 26.9991 11.5972 27.1959C11.8571 27.3926 12.174 27.4994 12.5 27.5ZM20 27.5H26V39.5H20V27.5ZM35 27.5V39.5H29V27.5H35ZM44 39.5H38V27.5H44V39.5ZM32 15.7625L46.1937 24.5H17.8062L32 15.7625ZM54.5 47C54.5 47.3978 54.342 47.7793 54.0607 48.0606C53.7794 48.3419 53.3978 48.5 53 48.5H11C10.6022 48.5 10.2206 48.3419 9.93934 48.0606C9.65804 47.7793 9.5 47.3978 9.5 47C9.5 46.6021 9.65804 46.2206 9.93934 45.9393C10.2206 45.658 10.6022 45.5 11 45.5H53C53.3978 45.5 53.7794 45.658 54.0607 45.9393C54.342 46.2206 54.5 46.6021 54.5 47Z" fill="#0071E4"/>
</svg>
