<svg width="64" height="64" viewBox="0 0 64 64" fill="none" xmlns="http://www.w3.org/2000/svg">
<path d="M43.6667 25V20.3333C43.6667 19.0956 43.175 17.9086 42.2998 17.0335C41.4247 16.1583 40.2377 15.6666 39 15.6666H15.6667C14.429 15.6666 13.242 16.1583 12.3668 17.0335C11.4917 17.9086 11 19.0956 11 20.3333V34.3333C11 35.571 11.4917 36.758 12.3668 37.6331C13.242 38.5083 14.429 39 15.6667 39H20.3333M25 48.3333H48.3333C49.571 48.3333 50.758 47.8416 51.6332 46.9665C52.5083 46.0913 53 44.9043 53 43.6666V29.6666C53 28.4289 52.5083 27.242 51.6332 26.3668C50.758 25.4916 49.571 25 48.3333 25H25C23.7623 25 22.5753 25.4916 21.7002 26.3668C20.825 27.242 20.3333 28.4289 20.3333 29.6666V43.6666C20.3333 44.9043 20.825 46.0913 21.7002 46.9665C22.5753 47.8416 23.7623 48.3333 25 48.3333ZM41.3333 36.6666C41.3333 37.9043 40.8417 39.0913 39.9665 39.9665C39.0913 40.8416 37.9043 41.3333 36.6667 41.3333C35.429 41.3333 34.242 40.8416 33.3668 39.9665C32.4917 39.0913 32 37.9043 32 36.6666C32 35.429 32.4917 34.242 33.3668 33.3668C34.242 32.4916 35.429 32 36.6667 32C37.9043 32 39.0913 32.4916 39.9665 33.3668C40.8417 34.242 41.3333 35.429 41.3333 36.6666V36.6666Z" stroke="#0071E4" stroke-width="3.67" stroke-linecap="round" stroke-linejoin="round"/>
</svg>
