<svg width="64" height="64" viewBox="0 0 64 64" fill="none" xmlns="http://www.w3.org/2000/svg">
<path d="M34.5776 53.793L38.4743 51.0677C43.4561 47.5802 47.3121 42.7149 49.5697 37.0683C51.8272 31.4217 52.3883 25.2391 51.184 19.2783C51.1245 18.9846 50.9982 18.7085 50.815 18.4714C50.6317 18.2343 50.3963 18.0425 50.127 17.911L31.9013 9L13.678 17.911C13.4083 18.0423 13.1724 18.2339 12.9887 18.471C12.805 18.7081 12.6783 18.9844 12.6186 19.2783C11.4146 25.2393 11.976 31.4221 14.234 37.0687C16.492 42.7153 20.3484 47.5805 25.3306 51.0677L29.2273 53.793C30.0115 54.3416 30.9454 54.6359 31.9025 54.6359C32.8595 54.6359 33.7934 54.3416 34.5776 53.793V53.793Z" stroke="#0071E4" stroke-width="3.6" stroke-linecap="round" stroke-linejoin="round"/>
</svg>
