<svg width="48" height="48" viewBox="0 0 48 48" fill="none" xmlns="http://www.w3.org/2000/svg">
<path d="M26.7188 42.2981L29.9495 40.0288C34.0798 37.1249 37.2767 33.0737 39.1485 28.3719C41.0202 23.6701 41.4853 18.5219 40.4869 13.5585C40.4376 13.314 40.3329 13.084 40.1809 12.8866C40.0289 12.6892 39.8338 12.5295 39.6105 12.42L24.4999 5L9.39118 12.42C9.16756 12.5293 8.97201 12.6888 8.8197 12.8863C8.66739 13.0837 8.56241 13.3138 8.5129 13.5585C7.51465 18.5221 7.98008 23.6704 9.85215 28.3722C11.7242 33.074 14.9216 37.1251 19.0522 40.0288L22.2829 42.2981C22.9331 42.755 23.7074 43 24.5008 43C25.2943 43 26.0686 42.755 26.7188 42.2981V42.2981Z" stroke="#0071E4" stroke-width="3.6" stroke-linecap="round" stroke-linejoin="round"/>
</svg>
