<svg width="64" height="64" viewBox="0 0 64 64" fill="none" xmlns="http://www.w3.org/2000/svg">
<path d="M11 32H32V35.5H11V32ZM7.5 23.25H25V26.75H7.5V23.25Z" fill="#0071E4"/>
<path d="M56.3583 33.0605L51.1083 20.8105C50.9735 20.4956 50.7493 20.2273 50.4634 20.0388C50.1775 19.8502 49.8425 19.7498 49.5 19.75H44.25V16.25C44.25 15.7859 44.0656 15.3408 43.7374 15.0126C43.4093 14.6844 42.9641 14.5 42.5 14.5H14.5V18H40.75V39.973C39.9526 40.436 39.2547 41.0524 38.6967 41.7864C38.1386 42.5205 37.7314 43.3578 37.4985 44.25H26.5015C26.0756 42.6003 25.0626 41.1627 23.6525 40.2064C22.2424 39.2502 20.5319 38.8411 18.8418 39.0558C17.1516 39.2705 15.5977 40.0942 14.4714 41.3726C13.3452 42.651 12.7238 44.2962 12.7238 46C12.7238 47.7038 13.3452 49.349 14.4714 50.6274C15.5977 51.9058 17.1516 52.7295 18.8418 52.9442C20.5319 53.1589 22.2424 52.7498 23.6525 51.7936C25.0626 50.8373 26.0756 49.3997 26.5015 47.75H37.4985C37.8792 49.2519 38.7498 50.584 39.9726 51.5356C41.1954 52.4871 42.7006 53.0037 44.25 53.0037C45.7994 53.0037 47.3046 52.4871 48.5274 51.5356C49.7502 50.584 50.6208 49.2519 51.0015 47.75H54.75C55.2141 47.75 55.6593 47.5656 55.9874 47.2374C56.3156 46.9093 56.5 46.4641 56.5 46V33.75C56.5001 33.5129 56.4519 33.2783 56.3583 33.0605ZM19.75 49.5C19.0578 49.5 18.3811 49.2947 17.8055 48.9101C17.2299 48.5256 16.7813 47.9789 16.5164 47.3394C16.2515 46.6999 16.1822 45.9961 16.3173 45.3172C16.4523 44.6383 16.7856 44.0146 17.2751 43.5251C17.7646 43.0356 18.3883 42.7023 19.0672 42.5673C19.7461 42.4322 20.4499 42.5015 21.0894 42.7664C21.7289 43.0313 22.2756 43.4799 22.6601 44.0555C23.0447 44.6311 23.25 45.3078 23.25 46C23.2491 46.928 22.88 47.8177 22.2239 48.4739C21.5677 49.13 20.678 49.4991 19.75 49.5ZM44.25 23.25H48.345L52.097 32H44.25V23.25ZM44.25 49.5C43.5578 49.5 42.8811 49.2947 42.3055 48.9101C41.7299 48.5256 41.2813 47.9789 41.0164 47.3394C40.7515 46.6999 40.6822 45.9961 40.8173 45.3172C40.9523 44.6383 41.2856 44.0146 41.7751 43.5251C42.2646 43.0356 42.8883 42.7023 43.5672 42.5673C44.2461 42.4322 44.9499 42.5015 45.5894 42.7664C46.2289 43.0313 46.7756 43.4799 47.1601 44.0555C47.5447 44.6311 47.75 45.3078 47.75 46C47.7491 46.928 47.38 47.8177 46.7239 48.4739C46.0677 49.13 45.178 49.4991 44.25 49.5ZM53 44.25H51.0015C50.616 42.751 49.744 41.4223 48.5222 40.4722C47.3003 39.5221 45.7978 39.0043 44.25 39V35.5H53V44.25Z" fill="#0071E4"/>
</svg>
