<svg width="48" height="48" viewBox="0 0 48 48" fill="none" xmlns="http://www.w3.org/2000/svg">
<path d="M8.25 24H24V26.625H8.25V24ZM5.625 17.4375H18.75V20.0625H5.625V17.4375Z" fill="#0071E4"/>
<path d="M42.2688 24.7954L38.3313 15.6079C38.2303 15.3717 38.0621 15.1705 37.8477 15.0291C37.6332 14.8877 37.382 14.8124 37.1251 14.8125H33.1876V12.1875C33.1876 11.8394 33.0494 11.5056 32.8032 11.2594C32.5571 11.0133 32.2232 10.875 31.8751 10.875H10.8751V13.5H30.5626V29.9797C29.9646 30.327 29.4412 30.7893 29.0226 31.3398C28.6041 31.8904 28.2987 32.5183 28.124 33.1875H19.8763C19.5568 31.9503 18.7971 30.872 17.7395 30.1548C16.6819 29.4377 15.3991 29.1308 14.1314 29.2918C12.8638 29.4529 11.6984 30.0707 10.8537 31.0294C10.009 31.9882 9.54297 33.2222 9.54297 34.5C9.54297 35.7778 10.009 37.0118 10.8537 37.9706C11.6984 38.9293 12.8638 39.5471 14.1314 39.7082C15.3991 39.8692 16.6819 39.5623 17.7395 38.8452C18.7971 38.128 19.5568 37.0497 19.8763 35.8125H28.124C28.4095 36.9389 29.0625 37.938 29.9796 38.6517C30.8967 39.3653 32.0256 39.7528 33.1876 39.7528C34.3497 39.7528 35.4786 39.3653 36.3957 38.6517C37.3128 37.938 37.9657 36.9389 38.2513 35.8125H41.0626C41.4107 35.8125 41.7446 35.6742 41.9907 35.4281C42.2369 35.1819 42.3751 34.8481 42.3751 34.5V25.3125C42.3752 25.1347 42.339 24.9587 42.2688 24.7954ZM14.8126 37.125C14.2935 37.125 13.7859 36.971 13.3543 36.6826C12.9226 36.3942 12.5861 35.9842 12.3875 35.5045C12.1888 35.0249 12.1368 34.4971 12.2381 33.9879C12.3394 33.4787 12.5894 33.011 12.9565 32.6438C13.3236 32.2767 13.7913 32.0267 14.3005 31.9254C14.8097 31.8242 15.3375 31.8761 15.8172 32.0748C16.2968 32.2735 16.7068 32.6099 16.9952 33.0416C17.2837 33.4733 17.4376 33.9808 17.4376 34.5C17.4369 35.196 17.1602 35.8633 16.668 36.3554C16.1759 36.8475 15.5086 37.1243 14.8126 37.125ZM33.1876 17.4375H36.2589L39.0729 24H33.1876V17.4375ZM33.1876 37.125C32.6685 37.125 32.1609 36.971 31.7293 36.6826C31.2976 36.3942 30.9611 35.9842 30.7625 35.5045C30.5638 35.0249 30.5118 34.4971 30.6131 33.9879C30.7144 33.4787 30.9644 33.011 31.3315 32.6438C31.6986 32.2767 32.1663 32.0267 32.6755 31.9254C33.1847 31.8242 33.7125 31.8761 34.1922 32.0748C34.6718 32.2735 35.0818 32.6099 35.3702 33.0416C35.6587 33.4733 35.8126 33.9808 35.8126 34.5C35.8119 35.196 35.5352 35.8633 35.043 36.3554C34.5509 36.8475 33.8836 37.1243 33.1876 37.125ZM39.7501 33.1875H38.2513C37.9621 32.0633 37.3081 31.0667 36.3918 30.3542C35.4754 29.6416 34.3485 29.2532 33.1876 29.25V26.625H39.7501V33.1875Z" fill="#0071E4"/>
</svg>
