<svg width="42" height="42" viewBox="0 0 42 42" fill="none" xmlns="http://www.w3.org/2000/svg">
<path d="M29.75 15.75V12.25C29.75 11.3217 29.3813 10.4315 28.7249 9.77513C28.0685 9.11875 27.1783 8.75 26.25 8.75H8.75C7.82174 8.75 6.9315 9.11875 6.27513 9.77513C5.61875 10.4315 5.25 11.3217 5.25 12.25V22.75C5.25 23.6783 5.61875 24.5685 6.27513 25.2249C6.9315 25.8813 7.82174 26.25 8.75 26.25H12.25M15.75 33.25H33.25C34.1783 33.25 35.0685 32.8813 35.7249 32.2249C36.3813 31.5685 36.75 30.6783 36.75 29.75V19.25C36.75 18.3217 36.3813 17.4315 35.7249 16.7751C35.0685 16.1187 34.1783 15.75 33.25 15.75H15.75C14.8217 15.75 13.9315 16.1187 13.2751 16.7751C12.6187 17.4315 12.25 18.3217 12.25 19.25V29.75C12.25 30.6783 12.6187 31.5685 13.2751 32.2249C13.9315 32.8813 14.8217 33.25 15.75 33.25ZM28 24.5C28 25.4283 27.6313 26.3185 26.9749 26.9749C26.3185 27.6313 25.4283 28 24.5 28C23.5717 28 22.6815 27.6313 22.0251 26.9749C21.3687 26.3185 21 25.4283 21 24.5C21 23.5717 21.3687 22.6815 22.0251 22.0251C22.6815 21.3687 23.5717 21 24.5 21C25.4283 21 26.3185 21.3687 26.9749 22.0251C27.6313 22.6815 28 23.5717 28 24.5V24.5Z" stroke="#0071E4" stroke-width="2.7525" stroke-linecap="round" stroke-linejoin="round"/>
</svg>
