<svg width="48" height="48" viewBox="0 0 48 48" fill="none" xmlns="http://www.w3.org/2000/svg">
<path d="M28.9531 8.25L37 16.2969M12.8594 40.4375H35.3906C35.8175 40.4375 36.2268 40.2679 36.5286 39.9661C36.8304 39.6643 37 39.255 37 38.8281V16.2969H28.9531V8.25H12.8594C12.4325 8.25 12.0232 8.41956 11.7214 8.72137C11.4196 9.02319 11.25 9.43254 11.25 9.85937V38.8281C11.25 39.255 11.4196 39.6643 11.7214 39.9661C12.0232 40.2679 12.4325 40.4375 12.8594 40.4375Z" stroke="#0071E4" stroke-width="2.25" stroke-linecap="round" stroke-linejoin="round"/>
<path d="M20.2625 21.9297H27.9875L30.5625 25.2434L24.125 33.1953L17.6875 25.2434L20.2625 21.9297Z" stroke="#0071E4" stroke-width="2.25" stroke-linecap="round" stroke-linejoin="round"/>
</svg>
